<?xml version="1.0" encoding="utf-8"?>
<!-- Generator: Adobe Illustrator 18.0.0, SVG Export Plug-In . SVG Version: 6.00 Build 0)  -->
<!DOCTYPE svg PUBLIC "-//W3C//DTD SVG 1.1//EN" "http://www.w3.org/Graphics/SVG/1.1/DTD/svg11.dtd">
<svg version="1.1" id="Capa_1" xmlns="http://www.w3.org/2000/svg" xmlns:xlink="http://www.w3.org/1999/xlink" x="0px" y="0px"
	 viewBox="292.1 378 27.8 36" enable-background="new 292.1 378 27.8 36" xml:space="preserve">
<path d="M295.4,387.3c0-0.2,0.1-0.3,0.3-0.4c0.2-0.1,0.3-0.1,0.5,0l1.8,1.3l0.1,0.1c1-1,2.1-1.8,3.4-2.3s2.7-0.9,4.2-0.9
	s2.9,0.3,4.2,0.9s2.5,1.3,3.4,2.3s1.8,2.1,2.3,3.4c0.6,1.3,0.9,2.7,0.9,4.2s-0.3,2.9-0.9,4.2c-0.6,1.3-1.3,2.5-2.3,3.4
	s-2.1,1.8-3.4,2.3c-1.3,0.6-2.7,0.9-4.2,0.9c-0.9,0-1.8-0.1-2.6-0.3s-1.7-0.5-2.5-0.9c-0.8-0.4-1.5-0.9-2.2-1.5
	c-0.7-0.6-1.2-1.3-1.8-2c-0.1-0.1-0.1-0.3-0.1-0.4c0-0.2,0.1-0.3,0.2-0.3l2.7-1.9c0.1-0.1,0.3-0.1,0.4-0.1c0.2,0,0.3,0.1,0.4,0.3
	c0.6,0.9,1.3,1.6,2.3,2.1c0.9,0.5,2,0.7,3,0.7c0.9,0,1.7-0.2,2.5-0.5c0.8-0.3,1.5-0.8,2-1.4c0.6-0.6,1-1.3,1.4-2
	c0.3-0.8,0.5-1.6,0.5-2.5c0-0.9-0.2-1.7-0.5-2.5c-0.3-0.8-0.8-1.5-1.4-2c-0.6-0.6-1.3-1-2-1.4c-0.8-0.3-1.6-0.5-2.5-0.5
	c-0.8,0-1.5,0.1-2.1,0.4c-0.7,0.2-1.3,0.6-1.8,1l0.3,0.2l1.8,1.3c0.2,0.1,0.2,0.3,0.2,0.4c0,0.2-0.1,0.3-0.3,0.4L296,396
	c-0.2,0-0.3,0-0.4-0.1c-0.1-0.1-0.2-0.2-0.2-0.4L295.4,387.3z"/>
</svg>
