<?xml version="1.0" encoding="utf-8"?>
<!-- Generator: Adobe Illustrator 18.0.0, SVG Export Plug-In . SVG Version: 6.00 Build 0)  -->
<!DOCTYPE svg PUBLIC "-//W3C//DTD SVG 1.1//EN" "http://www.w3.org/Graphics/SVG/1.1/DTD/svg11.dtd">
<svg version="1.1" id="Capa_1" xmlns="http://www.w3.org/2000/svg" xmlns:xlink="http://www.w3.org/1999/xlink" x="0px" y="0px"
	 viewBox="0 0 11.6 23.1" enable-background="new 0 0 11.6 23.1" xml:space="preserve">
<path d="M2.5,4.5c0-0.1,0-0.5,0.1-0.9c0-0.5,0.2-1,0.5-1.5C3.4,1.5,4,1,4.7,0.6C5.4,0.2,6.4,0,7.8,0h3.8v4.2H8.8
	c-0.3,0-0.5,0.1-0.8,0.3C7.8,4.7,7.7,4.9,7.7,5.1v2.6h3.9c0,0.5-0.1,1-0.1,1.5l-0.2,1.3c-0.1,0.4-0.1,0.8-0.2,1.2H7.7v11.5H2.5V11.6
	H0V7.6h2.5V4.5z"/>
</svg>
